<mxfile host="Electron" modified="2023-12-27T18:58:01.029Z" agent="Mozilla/5.0 (Macintosh; Intel Mac OS X 10_15_7) AppleWebKit/537.36 (KHTML, like Gecko) draw.io/22.1.11 Chrome/114.0.5735.289 Electron/25.9.8 Safari/537.36" etag="gFCo4Ov4nDd8mc-8quaF" version="22.1.11" type="device">
  <diagram name="Seite-1" id="H7haGx6OQvPddom_dAAy">
    <mxGraphModel dx="794" dy="1686" grid="1" gridSize="10" guides="1" tooltips="1" connect="1" arrows="1" fold="1" page="1" pageScale="1" pageWidth="827" pageHeight="1169" math="0" shadow="0">
      <root>
        <mxCell id="0" />
        <mxCell id="1" parent="0" />
        <mxCell id="Bdc0aAfN4dmWgVmIz5Za-1" value="Actor" style="shape=umlActor;verticalLabelPosition=bottom;verticalAlign=top;html=1;outlineConnect=0;" vertex="1" parent="1">
          <mxGeometry x="200" y="-360" width="30" height="60" as="geometry" />
        </mxCell>
        <mxCell id="Bdc0aAfN4dmWgVmIz5Za-6" value="" style="swimlane;startSize=0;" vertex="1" parent="1">
          <mxGeometry x="420" y="-530" width="300" height="400" as="geometry" />
        </mxCell>
        <mxCell id="Bdc0aAfN4dmWgVmIz5Za-5" value="&lt;b&gt;&lt;font style=&quot;font-size: 20px;&quot;&gt;Musikbibliothek&lt;/font&gt;&lt;/b&gt;" style="text;html=1;strokeColor=none;fillColor=none;align=center;verticalAlign=middle;whiteSpace=wrap;rounded=0;" vertex="1" parent="Bdc0aAfN4dmWgVmIz5Za-6">
          <mxGeometry x="110" y="10" width="100" height="30" as="geometry" />
        </mxCell>
        <mxCell id="Bdc0aAfN4dmWgVmIz5Za-7" value="Song hinzufügen" style="ellipse;whiteSpace=wrap;html=1;" vertex="1" parent="Bdc0aAfN4dmWgVmIz5Za-6">
          <mxGeometry x="40" y="120" width="90" height="30" as="geometry" />
        </mxCell>
        <mxCell id="Bdc0aAfN4dmWgVmIz5Za-9" value="Meta-Daten ändern" style="ellipse;whiteSpace=wrap;html=1;" vertex="1" parent="Bdc0aAfN4dmWgVmIz5Za-6">
          <mxGeometry x="186" y="130" width="90" height="40" as="geometry" />
        </mxCell>
        <mxCell id="Bdc0aAfN4dmWgVmIz5Za-13" value="Song löschen" style="ellipse;whiteSpace=wrap;html=1;" vertex="1" parent="Bdc0aAfN4dmWgVmIz5Za-6">
          <mxGeometry x="80" y="180" width="96" height="20" as="geometry" />
        </mxCell>
        <mxCell id="Bdc0aAfN4dmWgVmIz5Za-14" value="Song/Meta-Daten suchen" style="ellipse;whiteSpace=wrap;html=1;" vertex="1" parent="Bdc0aAfN4dmWgVmIz5Za-6">
          <mxGeometry x="200" y="190" width="90" height="40" as="geometry" />
        </mxCell>
        <mxCell id="Bdc0aAfN4dmWgVmIz5Za-15" value="Musikbibliothek anzeigen" style="ellipse;whiteSpace=wrap;html=1;" vertex="1" parent="Bdc0aAfN4dmWgVmIz5Za-6">
          <mxGeometry x="96" y="230" width="90" height="50" as="geometry" />
        </mxCell>
        <mxCell id="Bdc0aAfN4dmWgVmIz5Za-16" value="Änderungen speichern" style="ellipse;whiteSpace=wrap;html=1;" vertex="1" parent="Bdc0aAfN4dmWgVmIz5Za-6">
          <mxGeometry x="166" y="280" width="110" height="40" as="geometry" />
        </mxCell>
        <mxCell id="Bdc0aAfN4dmWgVmIz5Za-17" value="Daten speichern, Programm beenden" style="ellipse;whiteSpace=wrap;html=1;" vertex="1" parent="Bdc0aAfN4dmWgVmIz5Za-6">
          <mxGeometry x="140" y="330" width="116" height="60" as="geometry" />
        </mxCell>
        <mxCell id="Bdc0aAfN4dmWgVmIz5Za-28" value="Bibliothek initialisieren" style="ellipse;whiteSpace=wrap;html=1;" vertex="1" parent="Bdc0aAfN4dmWgVmIz5Za-6">
          <mxGeometry x="81" y="60" width="120" height="50" as="geometry" />
        </mxCell>
        <mxCell id="Bdc0aAfN4dmWgVmIz5Za-18" value="" style="endArrow=none;html=1;rounded=0;entryX=0.5;entryY=0.5;entryDx=0;entryDy=0;entryPerimeter=0;exitX=0;exitY=0.5;exitDx=0;exitDy=0;" edge="1" parent="1" source="Bdc0aAfN4dmWgVmIz5Za-7" target="Bdc0aAfN4dmWgVmIz5Za-1">
          <mxGeometry width="50" height="50" relative="1" as="geometry">
            <mxPoint x="380" y="-220" as="sourcePoint" />
            <mxPoint x="430" y="-270" as="targetPoint" />
          </mxGeometry>
        </mxCell>
        <mxCell id="Bdc0aAfN4dmWgVmIz5Za-19" value="" style="endArrow=none;html=1;rounded=0;entryX=0;entryY=0.5;entryDx=0;entryDy=0;exitX=0.5;exitY=0.5;exitDx=0;exitDy=0;exitPerimeter=0;" edge="1" parent="1" source="Bdc0aAfN4dmWgVmIz5Za-1" target="Bdc0aAfN4dmWgVmIz5Za-9">
          <mxGeometry width="50" height="50" relative="1" as="geometry">
            <mxPoint x="380" y="-220" as="sourcePoint" />
            <mxPoint x="430" y="-270" as="targetPoint" />
          </mxGeometry>
        </mxCell>
        <mxCell id="Bdc0aAfN4dmWgVmIz5Za-20" value="" style="endArrow=none;html=1;rounded=0;entryX=0.5;entryY=0.5;entryDx=0;entryDy=0;entryPerimeter=0;exitX=0;exitY=0.5;exitDx=0;exitDy=0;" edge="1" parent="1" source="Bdc0aAfN4dmWgVmIz5Za-13" target="Bdc0aAfN4dmWgVmIz5Za-1">
          <mxGeometry width="50" height="50" relative="1" as="geometry">
            <mxPoint x="380" y="-220" as="sourcePoint" />
            <mxPoint x="430" y="-270" as="targetPoint" />
          </mxGeometry>
        </mxCell>
        <mxCell id="Bdc0aAfN4dmWgVmIz5Za-21" value="" style="endArrow=none;html=1;rounded=0;exitX=0.5;exitY=0.5;exitDx=0;exitDy=0;exitPerimeter=0;entryX=0;entryY=0.5;entryDx=0;entryDy=0;" edge="1" parent="1" source="Bdc0aAfN4dmWgVmIz5Za-1" target="Bdc0aAfN4dmWgVmIz5Za-14">
          <mxGeometry width="50" height="50" relative="1" as="geometry">
            <mxPoint x="380" y="-220" as="sourcePoint" />
            <mxPoint x="430" y="-270" as="targetPoint" />
          </mxGeometry>
        </mxCell>
        <mxCell id="Bdc0aAfN4dmWgVmIz5Za-22" value="" style="endArrow=none;html=1;rounded=0;entryX=0;entryY=0.5;entryDx=0;entryDy=0;exitX=0.5;exitY=0.5;exitDx=0;exitDy=0;exitPerimeter=0;" edge="1" parent="1" source="Bdc0aAfN4dmWgVmIz5Za-1" target="Bdc0aAfN4dmWgVmIz5Za-15">
          <mxGeometry width="50" height="50" relative="1" as="geometry">
            <mxPoint x="380" y="-220" as="sourcePoint" />
            <mxPoint x="430" y="-270" as="targetPoint" />
          </mxGeometry>
        </mxCell>
        <mxCell id="Bdc0aAfN4dmWgVmIz5Za-23" value="" style="endArrow=none;html=1;rounded=0;entryX=0;entryY=0.5;entryDx=0;entryDy=0;exitX=0.5;exitY=0.5;exitDx=0;exitDy=0;exitPerimeter=0;" edge="1" parent="1" source="Bdc0aAfN4dmWgVmIz5Za-1" target="Bdc0aAfN4dmWgVmIz5Za-16">
          <mxGeometry width="50" height="50" relative="1" as="geometry">
            <mxPoint x="380" y="-220" as="sourcePoint" />
            <mxPoint x="430" y="-270" as="targetPoint" />
          </mxGeometry>
        </mxCell>
        <mxCell id="Bdc0aAfN4dmWgVmIz5Za-24" value="" style="endArrow=none;html=1;rounded=0;entryX=0;entryY=0.5;entryDx=0;entryDy=0;exitX=0.5;exitY=0.5;exitDx=0;exitDy=0;exitPerimeter=0;" edge="1" parent="1" source="Bdc0aAfN4dmWgVmIz5Za-1" target="Bdc0aAfN4dmWgVmIz5Za-17">
          <mxGeometry width="50" height="50" relative="1" as="geometry">
            <mxPoint x="380" y="-220" as="sourcePoint" />
            <mxPoint x="430" y="-270" as="targetPoint" />
          </mxGeometry>
        </mxCell>
        <mxCell id="Bdc0aAfN4dmWgVmIz5Za-29" value="" style="endArrow=none;html=1;rounded=0;entryX=0;entryY=0.5;entryDx=0;entryDy=0;exitX=0.5;exitY=0.5;exitDx=0;exitDy=0;exitPerimeter=0;" edge="1" parent="1" source="Bdc0aAfN4dmWgVmIz5Za-1" target="Bdc0aAfN4dmWgVmIz5Za-28">
          <mxGeometry width="50" height="50" relative="1" as="geometry">
            <mxPoint x="380" y="-350" as="sourcePoint" />
            <mxPoint x="430" y="-400" as="targetPoint" />
          </mxGeometry>
        </mxCell>
      </root>
    </mxGraphModel>
  </diagram>
</mxfile>
